<?xml version="1.0" encoding="UTF-8"?>
<svg xmlns="http://www.w3.org/2000/svg" viewBox="0 0 330 121">
    <g id="_图层_1">
        <g>
            <path style="opacity: 0.00392156862745098" d="M195,120.9c-63.6,0-127.3,0-190.9,0C.7,121,0,120.3,0,116.9c.2-21.3.1-42.5.1-63.8,2,0,3.9,0,5.9,0,5.1,4.4,11.3,2.8,17.2,2.8,3.4.7,6.8,1.3,10.2,2,1.3.4,2.6.8,3.9,1.2,0,.3,0,.6.2.8,0,3.2,1,5.5,4.9,5h0c1.6.3,3.3.7,5,1-1.6,1.3-3.1,2.9-5,3.9-2.2,1.2-4.7,2.1-7,3.1-.9,1.8-2.9,3.8-2.5,5.3.4,1.4,3,2.6,4.9,3.2,1.8.6,4,.5,5.9.5,7,0,14-.4,20.9,0,4.4.3,8.7,2,13,3.1h.9c.4,2,.7,3.9,1.1,5.9-.5,4.5,2.7,5.2,6,6,3.1.3,6.2.8,9.4,1,3.1.2,6.3,0,9.4,0-1.9,1-3.7,1-5.5,1-15,0-30.1,0-45.1,0-2.1,0-4.2,1.2-6.4,1.8-.6,1.3-1.3,2.7-1.9,4,1.6,3.6,3.8,6.1,8.2,6.1,16,.2,32,.6,48.1.9,6.4,0,12.9,0,19.3,0,12.3.2,24.6.6,36.9,1,7.3,0,14.7.5,22-.2,7.3-.7,11.3,3.3,15.2,8.1h0ZM24.4,65.1c-1.6,0-2,0-2.3,0-4.7,2,1.1,6.4-1.9,8.8,0,0,1.2,2.3,1.5,2.3,2.1-.6,4.8-1.1,6.1-2.6,1.1-1.3,1.4-4.2.6-5.8-.7-1.5-3.2-2.3-4-2.8h0Z"/>
            <path style="opacity: 0.00392156862745098" d="M.1,44.1C.1,30.8.2,17.6,0,4.3,0,1.1.4.1,4,.1c40.6.2,81.2.1,121.8.1h88.2v3h-1c-34.1,0-68.1,0-102.2,0-6.1,0-12.2,1.2-18.4,1.9-4,.3-8,.7-12,1-4.1-1.1-8.3-1.9-12.1,1-3-2.4-9.6-2.8-12.4-.6-2.7,2.1-3,6-.6,7.6,2.4,1.7,9.3,1.1,12-1.1,6.9,3.2,10.7,2.9,14.1-1,2.3,2.9,5.6,3.2,9,3,6.1,5.4,13.3,6.6,21.1,6,.9,1.6,2.8,3.4,2.4,4.7-.4,1.4-2.7,2.8-4.4,3.1-3.4.7-6.9,1-10.4,1.1-10.7.1-21.3,0-32,0-3.4,0-6.4.5-7.9,4h-21.1c-8,1.8-16.4,2.6-23.9,5.8-4.8,2-8.9,4.9-14.3,4.2h0Z"/>
            <path style="opacity: 0.011764705882352941" d="M331.6,115.9c.9,4.2-.8,5.2-5,5.1-18.7-.3-37.5-.1-56.3-.1,3.2-5,6.7-9.3,13.6-8.9,14.2.8,28.4,1.4,42.6,2.1,1.7.6,3.4,1.2,5.1,1.9h0Z"/>
            <path style="opacity: 0.18823529411764706" d="M269.4,120.9h-13.1c-2-1.7-4.1-3.3-6.1-4.9,0-2.7-1.5-3.7-4.1-4-7-.8-11.2,1.8-13.9,8.9h-28.1c-.3-1.7-.7-3.3-1-4.9,0-1,0-1.9,0-2.9,1.7,0,3.3,0,5,.1,0,2.6,1.2,4.3,3.9,3.6,6.8-1.7,14.9.9,20.2-6,.7,0,1.4,0,2.1,0,.7,0,1.3,0,2,0,3.4,0,6.7,0,10.1,0,1.3,0,2.6.2,3.9.2,4.7,2.7,9.3,5.7,15.1,4.7,3.6,0,4.3,2.1,4.1,5h0Z"/>
            <path style="opacity: 0.08627450980392157" d="M213.1,3.2h1c18.1,0,36.3,0,54.4,0,2.4,0,5.3.6,5.9-3h28.1c-.7,1.7-1.3,3.3-2,5h0c-1.7-.3-3.5-.9-5.2-.9-6.6,0-13.2,0-19.8,0-8.4.3-16.8.7-25.3,1-1.3,0-2.6,0-3.9,0h-32.2c-.7,0-1.4,0-2.1-.2.3-.6.7-1.3,1-1.9h0Z"/>
            <path style="opacity: 0.8901960784313725" d="M331.6,5.2v4c-1.1,1-2.1,2-3.2,3-2.3-.8-5-1.1-6.9-2.5-6-4.3-12.3-2.6-18.5-1.3-2.2.4-4.3,1.7-6.5,1.8-6.7.2-13.4,0-20.1,0,2.2-1,4.4-2.5,6.7-2.8,4-.5,8,0,12-.3,1.8-.1,3.6-1.2,5.4-1.8h0c3.8-.1,7.6,0,11.5-.2,3.9-.1,7.8-.4,11.8-.7,2.6.3,5.3.5,7.9.8h0Z"/>
            <path style="opacity: 0.043137254901960784" d="M274.4.2c-.6,3.6-3.5,3-5.9,3-18.1,0-36.3,0-54.4,0V.2s60.3,0,60.3,0Z"/>
            <path style="opacity: 0.058823529411764705" d="M.1,44.1c5.5.7,9.6-2.2,14.3-4.2,7.4-3.1,15.9-4,23.9-5.8-1.7.6-3.3,1.3-5,1.9-1.2.7-3.4,1.4-3.4,2.2-.4,4.9-3.4,6.1-7.7,6.3-1,0-2,1-3,1.6-6.4,0-12.7,0-19.1,0,0,0,0-2,0-2Z"/>
            <path style="opacity: 0.2196078431372549" d="M269.4,120.9c.2-2.9-.5-5.1-4.1-5,3-1.6,6.1-3.3,9.1-4.9h43.2c1.7-.2,3.3-.2,5-.2,1.3.1,2.6.2,3.9.3,0,.3,0,.6,0,.9,0,.7,0,1.4,0,2.1-14.2-.7-28.4-1.3-42.6-2.1-6.9-.4-10.4,3.9-13.6,8.9h-1,0Z"/>
            <path style="opacity: 0.7725490196078432" d="M328.5,12.2c1.1-1,2.1-2,3.2-3v96.7c-.4,0-.7,0-1.1,0-.7,0-1.4,0-2.1,0,.7-2.6,2.1-5.2,2.1-7.9.2-25.1.2-50.2,0-75.2,0-3.5-1.4-7-2.1-10.5h0Z"/>
            <path style="opacity: 0.5450980392156862" d="M323.7,4.4c-3.9.2-7.8.5-11.8.7-3.8.1-7.6,0-11.5.1.7-1.7,1.3-3.3,2-5h20.1c.4,1.4.7,2.8,1.1,4.2h0Z"/>
            <path style="opacity: 0.054901960784313725" d="M203,115.9c.3,1.7.7,3.3,1,4.9h-9c-3.9-4.8-7.9-8.8-15.2-8.1-7.3.7-14.7.2-22,.2.9-.3,1.9-.9,2.8-.9,9,0,17.9,0,26.9,0,1.3,0,2.9.2,3.8,1,3.4,3.3,7.6,2.7,11.7,2.8h0Z"/>
            <path style="opacity: 0.15294117647058825" d="M.1,46.1c6.4,0,12.7,0,19.1,0,.4.7.8,1.5,1.1,2.2-3.7,1-7.4,1.9-11.1,2.9-1.1.7-2.1,1.3-3.2,2-2,0-3.9,0-5.9,0v-7h0Z"/>
            <path style="opacity: 0.03529411764705882" d="M250.2,115.9c2,1.7,4.1,3.3,6.1,4.9h-19.1c.2-3.4,2.2-4.9,5.5-4.9,2.5,0,5,0,7.4,0Z"/>
            <path style="opacity: 0.08235294117647059" d="M250.2,115.9c-2.5,0-5,0-7.4,0-3.3,0-5.3,1.5-5.5,4.9h-5c2.7-7.1,6.9-9.8,13.9-8.9,2.5.3,4.1,1.3,4.1,4h0Z"/>
            <path style="opacity: 0.09019607843137255" d="M323.7,4.4c-.4-1.4-.7-2.8-1.1-4.2,1.3,0,2.7.2,4,0,4.3-.8,5.9.8,5,5-2.6-.3-5.3-.5-7.9-.8Z"/>
            <path style="opacity: 0.5254901960784314" d="M330.5,105.9c.4,0,.7,0,1.1,0v5c-.3,0-.6,0-1,0h-4.2c-1.3,0-2.6-.2-3.9-.3,2.6-1.3,5.3-2.6,7.9-3.9,0-.3,0-.6,0-.9h0Z"/>
            <path style="opacity: 0.27450980392156865" d="M330.7,111c.3,0,.6,0,1,0v5c-1.7-.6-3.4-1.2-5.1-1.9,0-.7,0-1.4,0-2.1,1.6.8,3.5,2.7,4.1-.9Z"/>
            <path style="opacity: 0.09411764705882353" d="M47.3,100.8c2.1-.6,4.2-1.8,6.4-1.8,15-.2,30.1,0,45.1,0,1.8,0,3.6,0,5.5-1-3.1,0-6.3.1-9.4,0s-6.2-.6-9.4-1c8.4-.1,16.9-.3,25.3-.4,1.6.4,3.3.9,5,1.3-1.1,1-2.1,2-3.2,3.1-.6.4-1.3.8-1.9,1.2-2-.1-4.1-.3-6.1-.4-2.1-.3-4.2-.7-6.4-.8-17,0-34,0-51,0h0Z"/>
            <path style="opacity: 0.16470588235294117" d="M203,115.9c-4.1,0-8.3.4-11.7-2.8-.8-.8-2.5-1-3.8-1-9,0-17.9,0-26.9,0-.9,0-1.9.6-2.8.9-12.3-.3-24.6-.7-36.9-1-6.4-.1-12.9,0-19.3,0,0-.3,0-.6,0-.9.7,0,1.4-.2,2.1-.2h62.3c12.4.7,24.9,1.4,37.3,2v.2c-.1,1-.1,1.9,0,2.9h0Z"/>
            <path style="opacity: 0.4666666666666667" d="M9.2,51.1c3.7-1,7.4-1.9,11.1-2.9,3.1-.3,6.7-1.7,9.1-.5,5.9,2.8,12,.9,17.8,2.2,1.7-.7,3.3-1.3,5-1.9,1.3-.7,2.7-1.3,4-2,0,1.7,0,3.4.1,5.1-1.4,0-2.7,0-4.1,0-2,0-4,0-6,0-4.4,0-8.9-.2-13.3,0-1.3,0-2.6.8-4,1.2.9,1,1.8,1.8,2.6,2.8.7.8,1.1,1.8,1.7,2.7-3.4-.7-6.8-1.3-10.2-2,1.2-3.3.3-5-3.5-4.8-3.5.1-7,0-10.4,0h0Z"/>
            <path style="opacity: 0.6901960784313725" d="M46.3,51.2c2,0,4,0,6,0,.1,5.5,1.9,8.5,5.2,9,0,.3,0,.6,0,.9-1.4,2.3-2.7,4.7-4.1,7-.2,0-.4,0-.6,0-1.3-1-2.5-2.5-3.9-2.8-2-.5-4.3,0-6.4,0h0c-1.6-1.7-3.2-3.4-4.9-5,0-.3-.2-.5-.2-.8,1-2.8,2.5-3.8,5.1-1.7,1,.8,2.4,1.3,3.6,2,.5-1.5,1.2-3,1.3-4.5,0-1.2-.6-2.5-.9-3.8h0Z"/>
            <path style="opacity: 0.33725490196078434" d="M47.3,100.8c17,0,34,0,51,0,2.1,0,4.2.5,6.4.8v.4c-13.1,0-26.3-.1-39.4,0-1.4,0-2.8.7-4.2,1,.5.9,1,1.9,1.5,2.8h-1.3c-5.3-.3-10.6-.7-15.8-1.1.6-1.3,1.3-2.7,1.9-4Z"/>
            <path style="opacity: 0.22745098039215686" d="M77.5,85.1c-4.3-1.1-8.6-2.8-13-3.1-6.9-.5-13.9,0-20.9,0-2,0-4.1,0-5.9-.5-1.9-.6-4.5-1.8-4.9-3.2s1.6-3.5,2.5-5.3c2,1.9-1.5,6.2,3.1,6.9,6.6-.5,13.2-1,19.8-1.4.7,0,1.3,0,2,0,4.8.5,9.5,1,14.3,1.4h-.1c1.1,1.8,2.1,3.5,3.2,5.1h0Z"/>
            <path style="opacity: 0.796078431372549" d="M46.3,51.2c.3,1.3,1,2.5.9,3.8-.1,1.5-.8,3-1.3,4.5-1.2-.7-2.5-1.1-3.6-2-2.7-2.1-4.2-1.1-5.1,1.7-1.3-.4-2.6-.8-3.9-1.2-.6-.9-1.1-1.9-1.7-2.7-.8-1-1.7-1.9-2.6-2.8,1.3-.4,2.6-1.2,4-1.2,4.4-.1,8.9,0,13.3,0h0Z"/>
            <path style="opacity: 0.07058823529411765" d="M45.4,104.8c5.3.4,10.6.8,15.8,1.2,1.4,3.8,4.3,5,8.2,5,10.7-.1,21.4,0,32.1,0,0,.3,0,.6,0,.9-16-.3-32-.7-48.1-.9-4.4,0-6.6-2.5-8.2-6.1h0Z"/>
            <path style="opacity: 0.12156862745098039" d="M79.5,91c-.4-1.9-.7-3.9-1.1-5.8.7,0,1.3,0,2,0,1.8,0,3.6,0,5.3,0,1.3-.8,2.6-1.6,3.8-2.3.3,0,.6,0,1,0,4.7-.4,5.3,2.4,5.1,6,0,.3,0,.6-.1.9-3.3.4-6.6.8-9.9,1.1-2,0-4,0-6,0Z"/>
            <path style="opacity: 0.3843137254901961" d="M38.3,79.9c-4.5-.8-1.1-5-3.1-6.9,2.4-1,4.8-1.8,7-3.1,1.8-1,3.3-2.6,5-3.9,3.9,0,4.5,1.9,3.1,5-1,1.3-2.1,2.5-3.1,3.8-1.3,0-2.6.2-3.9.2-3.4,0-5.3,1.3-5,4.9h0Z"/>
            <path style="opacity: 0.06274509803921569" d="M24.4,65.1c.8.5,3.3,1.2,4,2.8.7,1.6.5,4.5-.6,5.8-1.3,1.5-3.9,1.9-6.1,2.6-.3,0-1.6-2.2-1.5-2.3,3-2.5-2.7-6.8,1.9-8.8.3-.1.7,0,2.3,0h0Z"/>
            <path style="opacity: 0.592156862745098" d="M9.2,51.1c3.5,0,7,0,10.4,0,3.8-.2,4.8,1.5,3.5,4.8-5.9,0-12,1.6-17.2-2.8,1.1-.7,2.1-1.3,3.2-2h0Z"/>
            <path style="opacity: 0.23137254901960785" d="M79.5,91c2,0,4,0,6,0-.3,2.6.9,4.1,3.6,4.2,2.5.2,4.9.5,7.4.6,4.8.3,9.6.5,14.4.7-8.4.1-16.9.3-25.3.4-3.2-.8-6.5-1.5-6-6h0Z"/>
            <path style="opacity: 0.403921568627451" d="M50.4,71.1c1.4-3.1.8-5.1-3.1-5-1.6-.3-3.3-.7-5-1,2.2,0,4.4-.4,6.4,0,1.5.3,2.6,1.9,3.9,2.8-.8,1-1.5,2.1-2.3,3.1h0Z"/>
            <path style="opacity: 0.4549019607843137" d="M80.4,85.3c-.7,0-1.3,0-2,0h-.4c0,0-.4,0-.4,0-1.1-1.7-2.1-3.3-3.2-5,2,1.3,4,2.7,6,4,0,.3.1.5.2.8l-.2.4h0Z"/>
            <path style="opacity: 0.403921568627451" d="M37.4,60c1.6,1.7,3.2,3.4,4.9,5-3.9.5-4.9-1.8-4.9-5Z"/>
            <path style="opacity: 0.047058823529411764" d="M59.4,34.1c1.5-3.5,4.5-4,7.9-4,10.7,0,21.3,0,32,0,3.5,0,7-.3,10.4-1.1,1.7-.4,4-1.8,4.4-3.1.4-1.2-1.5-3.1-2.4-4.7,1.3,0,2.7,0,4,0,2.3,0,4.7,0,7,0,3.3,0,6.7,0,10-.1,3.3,0,6.9.7,9.9-.3,6-1.9,11.1-.7,16.2,2.4,0,.6,0,1.3.1,2,0,1.3-.1,2.5-.2,3.8-5.3.4-10.6.8-15.9,1.3-2,.3-4,.6-6.1.9-2.4.7-4.7,1.3-7.1,2-.4-.3-.7-.7-1.1-1-1.2-.6-2.5-1.9-3.7-1.9-4.7.1-9.4.6-14.1,1-5.1.6-10.2,1.3-15.3,1.8-1.3.1-2.6-.3-3.9-.5-3.6-.4-7.2-.9-10.8-1.3-7.4-1-14.4,1.4-21.4,2.9h0Z"/>
            <path style="opacity: 0.043137254901960784" d="M213.1,3.2c-.3.6-.7,1.3-1,1.9-19.1,0-38.2,0-57.2.1h-50.2c-1.6.3-3.6,0-4.7,1-3,2.2-5.2,1.2-7.4-1,6.1-.7,12.2-1.9,18.4-1.9,34.1-.2,68.1,0,102.2,0h0Z"/>
            <path style="opacity: 0.08627450980392157" d="M59.4,34.1c7.1-1.5,14-3.9,21.4-2.9,3.6.5,7.2.9,10.8,1.3,1.3.2,2.6.6,3.9.5,5.1-.5,10.2-1.2,15.3-1.8-2.7,1.3-5.4,3.4-8.2,3.7-15.4,1.2-30.8-1.1-46.3,1.1-5.9.8-12,.2-18,.2-1.7,0-3.3,0-5,0v-.2c1.7-.6,3.3-1.3,5-1.9h21.1Z"/>
            <path style="opacity: 0.08627450980392157" d="M92.5,5.2c2.2,2.2,4.4,3.2,7.4,1,1.2-.9,3.1-.7,4.7-1-.4,1.3-.9,2.6-1.3,3.9-.3.6-.6,1.3-.8,1.9-.6.4-1.2.8-1.8,1.2-.4,0-.8,0-1.2-.1-1.4-.4-2.8-.9-4.2-1.3-4.1-1.3-5.5,0-4.8,4.4-3.4.2-6.7-.1-9-3-.3-2-.7-4-1-6,4-.3,8-.7,12-1h0Z"/>
            <path style="opacity: 0.047058823529411764" d="M67.4,13.2c-2.7,2.2-9.6,2.8-12,1.1-2.4-1.6-2-5.6.6-7.6,2.8-2.1,9.3-1.8,12.4.6-.3,2-.7,4-1,5.9Z"/>
            <path style="opacity: 0.1803921568627451" d="M90.5,15.2c-.7-4.5.7-5.7,4.8-4.4,1.4.4,2.8.9,4.2,1.3-.1,3.9,2,5.3,5.6,5,4.2-.4,7.8.7,10.6,4-1.3,0-2.7,0-4,0-7.8.6-15.1-.6-21.1-6h0Z"/>
            <path style="opacity: 0.20784313725490197" d="M67.4,13.2c.3-2,.7-4,1-5.9,3.8-3,7.9-2.1,12.1-1,.3,2,.7,4,1,6-3.3,3.9-7.2,4.2-14.1,1Z"/>
            <path style="opacity: 0.6784313725490196" d="M208,113.2c-1.7,0-3.3,0-5-.1v-.2c-.7-3.5-3.5-2.6-5.9-2.8-11.7-1.1-23.7,1-35.2-3-11.4,0-22.8,0-34.3,0-.3,0-.6,0-.9,0l5-1.1c22.3,0,44.6.2,66.9.1,4.2,0,7.5,1,9.5,4.9,0,.8,0,1.5,0,2.2h0Z"/>
            <path style="opacity: 0.6705882352941176" d="M208,113.2c0-.8,0-1.5,0-2.2.7.6,1.3,1.3,2,1.9,1-.2,2.1-.5,3.1-.7,3.1-.3,6.3-.5,9.4-.8,3.1-.3,4.8-2.1,4.7-5.2,2.3.3,4.6.6,6.9.8-.7,1.3-1.4,2.6-2.1,3.9-5.3,6.9-13.4,4.3-20.2,6-2.7.7-4-1-3.9-3.6h0Z"/>
            <path style="opacity: 0.4627450980392157" d="M274.4,110.9c-3,1.6-6.1,3.3-9.1,4.9-5.8.9-10.4-2-15.1-4.7.1-.2.2-.3.3-.5,3,0,6,.1,8.9.2,5,0,10,0,15,0h0Z"/>
            <path style="opacity: 0.4823529411764706" d="M232.1,110.8c.7-1.3,1.4-2.6,2.1-3.9,2.6-.4,5.3-.8,7.9-1.1,2.8,1.6,5.5,3.3,8.3,4.9-.1.2-.2.3-.3.5-1.3,0-2.6-.2-3.9-.2-4.4-5.1-7-5.3-10.1-1-.7.3-1.3.7-2,1,0,0-2.1,0-2.1,0Z"/>
            <path style="opacity: 0.32941176470588235" d="M236.2,109.9c3.1-4.3,5.7-4.1,10.1,1-3.4,0-6.7,0-10.1,0v-1h0Z"/>
            <path style="opacity: 0.3411764705882353" d="M236.2,109.9v1c-.7,0-1.3,0-2,0,.7-.3,1.3-.7,2-1Z"/>
            <path style="opacity: 0.3215686274509804" d="M102.5,11c.3-.6.6-1.3.8-1.9,3.3-1,6.7-2.7,10-2.7,14.2,0,28.3.5,42.5.8,2.9.3,5.9,1,8.8.9,8.3-.1,16.7-.8,25-.8,6,0,12,.9,18,.8,2.2,0,4.3-1.8,6.5-2.8h32.2c-5.2,3.2-10.9,4.2-17,4-5.4-.2-10.9.5-16.3.8-5.2,0-10.3.1-15.5,0-3.3,0-5.8,1-7.4,4-.4,0-.7,0-1.1,0h-5c-.4,0-.8,0-1.2,0-1.9-1-3.8-2.8-5.8-2.8-18.8-.6-37.7-.9-56.5-1.1-6,0-12,.6-17.9.9h0Z"/>
            <path style="opacity: 0.6745098039215687" d="M213,10.1c5.4-.3,10.9-1,16.3-.8,6.1.2,11.8-.8,17-4,1.3,0,2.6,0,3.9,0,2,1.3,3.8,3.3,5.9,3.7,3.4.6,7.1.7,10.4-.1,3.2-.8,6-3,8.9-4.6,6.6,0,13.2-.1,19.8,0,1.7,0,3.5.7,5.2,1-1.8.6-3.6,1.7-5.4,1.8-4,.3-8.1-.2-12,.3-2.3.3-4.5,1.8-6.7,2.8-6.7,1.7-13.4,3.3-20.1,5-4-5.5-18.8-7.1-23.7-2.5-.3.3-.3.9-.4,1.4-1.1-.2-2.8,0-3.3-.7-2.8-4.1-6.9-3.2-10.9-3.2-1.7,0-3.3,0-5-.1h0Z"/>
            <path style="opacity: 0.22745098039215686" d="M214.1,5.3c-2.2,1-4.3,2.7-6.5,2.7-6,.1-12-.8-18-.8-8.3,0-16.7.7-25,.9-2.9,0-5.9-.6-8.8-.9-.3-.7-.7-1.3-1-1.9,19.1,0,38.2,0,57.2-.1.7,0,1.4,0,2.1.2h0Z"/>
            <path style="opacity: 0.3215686274509804" d="M275.5,4.3c-3,1.6-5.8,3.8-8.9,4.6-3.3.8-7,.7-10.4.1-2.1-.4-4-2.4-5.9-3.7,8.4-.3,16.8-.7,25.3-1h0Z"/>
            <path d="M256.3,15.2c6.7-1.7,13.4-3.3,20.1-5,6.7,0,13.4.2,20.1,0,2.2,0,4.3-1.3,6.5-1.8,6.3-1.3,12.5-3.1,18.5,1.3,1.9,1.4,4.6,1.7,6.9,2.5.7,3.5,2.1,7,2.1,10.5.2,25.1.2,50.1,0,75.2,0,2.6-1.4,5.3-2.1,7.9-2.2.3-4.5.5-6.7,1-2.4.6-4.8,1.4-7.2,2.1-2.7-1-5.4-2.7-8.1-2.8-10.7-.3-21.4-.1-32.1-.2h-24.1c-2.7,0-5.4-.1-8.1-.2-2.6.4-5.3.8-7.9,1.1-2.3-.3-4.6-.6-6.9-.8-2,0-4.1-.3-6,.1-3.4.9-7.5,1.2-8.1,5.9-1,.2-2.1.5-3.1.7-1.3-7.1-1.3-7.2-8.3-8-4-.5-8-.8-12-.8-19.6,0-39.2,0-58.7,0h-5.1v-.5c3.3-.5,6.5-1,9.8-1.4,2.4,0,4.7-.1,7.1-.2.3,0,.6,0,.9,0,7.4.2,14.8,1,21.6-3.5,1.9-1.2,4.7-1.1,7.2-1.4,2.5-.3,5-.3,7.4-.6,4-.4,5.6-2.4,4-6.4-2.7-1.3-5.3-3.7-8.1-3.8-10-.5-20-.2-30-.2-1.6,0-3.3.5-4.9.7-4.7.7-9.4,1.6-14.1,2.2-4.4.5-8.8.8-13.3,1.2-2.6.1-5.2.6-7.7.2-.9-.1-2.4-2.7-2.1-3.5,2-4.6-.7-5.9-4.3-6.8-4.6,0-9.2,0-13.9,0h-6.3c-1.9-3-4.4-4.2-8-4.2-4.8,0-9.6-.7-14.5-.9-3.2-.1-4.8-1.1-3.7-4.5.2-.7,0-1.6,0-2.5,1.4-2.3,2.7-4.7,4.1-7,3,0,6,0,9,0,2.7,0,4.2,1.2,4,3.9-.4,5,2.2,6.4,6.7,6.1,2.2-.2,4.4-.2,6.5,0,4.8.4,8-1.7,10-5.8,2.1-4.2,5.9-4.5,10-4.3,2.3-1,4.7-2,7-3,.9.4,2.4,1.4,2.6,1.1,3.4-3.7,8.5-2.3,12.4-4.2s1.8-3.3,1.4-3.8c-1.9-1.9-4.1-4.2-6.5-4.8-7.1-1.7-13.7,1.4-20.3,3.3-.7.2-1,1.6-1.5,2.4-1,.7-2.1,1.3-3.1,2-5.2,1.6-10.1,1.7-14.4-2.6-.8-.8-2.4-.8-3.7-1.2-.6-1.3-1.3-2.7-1.9-4,5.2-.9,10.3-1.7,15.5-2.8,3-.6,5.9-1.8,8.9-2.3,2.9-.5,6-.1,8.9-.5,2.6-.3,4.8-1.4,4.8-4.6h0c.7,0,1.4,0,2.1,0,3.7,0,7.4,0,11.1,0,.3-.3.7-.7,1-1,2.3,0,4.6.1,6.9.2,2.7.2,5.4.5,8.1.7,6.3-.2,12.7-.2,19-.6,4-.3,5.1-2.6,3.2-6.2.9-1,1.7-2.7,2.8-2.8,7.1-.9,14.3-1.5,21.5-2.1,4.3-2.2,11-2,9.9-9.7,0-.6,1.6-2.1,2.5-2.2,6.6-.5,13.2-.8,19.9-1,2.6-.1,4.6.7,4.7,3.8,0,.5,1.5,1.3,2.3,1.3,1.3,0,2.5-.8,3.8-1.2,4.2,0,8.5.5,12.2-2.8.9-.8,3.6,0,5.3.4,2.2.6,4.4,1.5,6.5,2.3h0Z"/>
            <path style="opacity: 0.17647058823529413" d="M47.3,50c-5.8-1.3-12,.5-17.8-2.2-2.4-1.1-6,.3-9.1.5-.4-.7-.8-1.5-1.1-2.2,1-.5,2-1.5,3-1.6,4.2-.2,7.3-1.3,7.7-6.3,0-.8,2.2-1.5,3.4-2.2v.2c0,8.4.9,9.3,9.6,9.8,2.7.2,4.5.8,4.4,3.9h0Z"/>
            <path style="opacity: 0.7294117647058823" d="M314.6,108.9c2.4-.7,4.7-1.6,7.2-2.1,2.2-.5,4.4-.7,6.7-1,.7,0,1.4,0,2.1,0,0,.3,0,.6,0,.9-5-.9-8.8,2.1-12.9,4-14.4,0-28.8,0-43.2.1-5,0-10,0-15,0,5.6-.6,11.2-1.7,16.8-1.8,12.8-.3,25.7,0,38.5,0h0Z"/>
            <path style="opacity: 0.615686274509804" d="M317.6,110.8c4.2-1.8,7.9-4.9,12.9-4-2.6,1.3-5.3,2.6-7.9,3.9-1.7,0-3.3,0-5,0Z"/>
            <path style="opacity: 0.36470588235294116" d="M330.7,111c-.6,3.6-2.5,1.8-4.1.9,0-.3,0-.6,0-.9h4.2c0,0,0,0,0,0Z"/>
            <path style="opacity: 0.5372549019607843" d="M126.7,106.9c.3,0,.6,0,.9,0,1.4.6,2.9,1.8,4.3,1.8,8.3.2,16.7.2,25,0,1.6,0,3.3-1.2,4.9-1.9,11.5,4,23.5,1.9,35.2,3,2.4.2,5.2-.6,6,2.8-12.4-.7-24.9-1.4-37.3-2-1.5-.3-2.9-.8-4.4-.8-17.3,0-34.7,0-52-.1-2,0-3.9-.6-5.9-.9.3-2.3.7-4.6,1-6.8v-.4c2,.1,4.1.3,6.1.4,0,3.8,2.7,4.6,5.6,4.8,3.4.2,6.9,0,10.4.1h0Z"/>
            <path style="opacity: 0.41568627450980394" d="M112.6,100.9c1.1-1,2.1-2,3.2-3.1,2-1.6,3.9-3.2,5.9-4.8h18c-1.1,6.5-1.6,6.8-8.3,7-2.9,0-5.8.6-8.8.8-3.4,0-6.7,0-10.1,0Z"/>
            <path style="opacity: 0.8588235294117647" d="M112.6,100.9c3.4,0,6.7,0,10.1,0h18.1c.7.3,1.4.6,2.1.9-2.4,0-4.7.1-7.1.2-6.1,0-12.1.2-18.2.2,0,.4,0,.9,0,1.3,4.7.8,9.4,1.5,14.1,2.3l-5,1.1c-3.5,0-6.9,0-10.4-.1-2.9-.2-5.7-.9-5.6-4.8.6-.4,1.3-.8,1.9-1.2h0Z"/>
            <path style="opacity: 0.49411764705882355" d="M121.7,93c-2,1.6-3.9,3.2-5.9,4.8-1.6-.4-3.3-.9-5-1.3-4.8-.2-9.6-.4-14.4-.7-2.5-.1-4.9-.4-7.4-.6-2.7-.2-3.8-1.6-3.6-4.2,3.3-.4,6.6-.8,9.9-1.1l4-.9c-2.4,1-4.8,2.1-7.3,3.1-.7.3-1.4.7-2.1,1,.7.5,1.4,1.2,2.2,1.5,1.1.3,2.3.3,3.4.3,8.7-.2,17.5,1.2,26-1.7h0Z"/>
            <path style="opacity: 0.43529411764705883" d="M103.6,108.9c2,.3,3.9.9,5.9.9,17.3,0,34.7,0,52,.1,1.5,0,2.9.5,4.4.8h-62.3c-2.3-.6-4.7-1.7-7-1.7-8.3-.2-16.5,0-24.8,0-2.3,0-4.8.2-5.3-3,10.3,0,20.6-.2,30.9.1,2.1,0,4.2,1.8,6.3,2.8h0Z"/>
            <path style="opacity: 0.3333333333333333" d="M66.4,105.9c.5,3.2,3,3,5.3,3,8.3,0,16.5-.1,24.8,0,2.4,0,4.7,1.1,7,1.7-.7,0-1.4.2-2.1.2-10.7,0-21.4-.2-32.1,0-4,0-6.8-1.2-8.2-5h1.3c1.3-.1,2.6,0,3.9,0Z"/>
            <path style="opacity: 0.3137254901960784" d="M38.3,36.1c6,0,12.1.7,18-.2,15.4-2.2,30.9.1,46.3-1.1,2.8-.2,5.5-2.4,8.2-3.7,4.7-.4,9.4-.9,14.1-1,1.2,0,2.5,1.2,3.7,1.8h-1c-1.7-.3-3.3-.7-5-1-4.4-.8-7,1.6-9.1,4.9h0c-1.3,0-2.6.1-4,.2-5.4,0-10.7-.1-16.1,0-6.7.1-13.3.3-20,.8-2.8.2-5.9.9-8.3,2.2-3.3,1.8-6,4.5-9,6.8-1.3.7-2.7,1.3-4,2-2.4-1.2-4.7-3.3-7.2-3.5-7.3-.5-8.2-1.2-6.8-8.4h0Z"/>
            <path style="opacity: 0.5647058823529412" d="M56.3,46c3-2.3,5.8-5,9-6.8,2.4-1.3,5.5-2,8.3-2.2,6.6-.5,13.3-.7,20-.8,5.4-.1,10.7,0,16.1,0-1.8.9-3.6,2.2-5.5,2.6-2.1.5-4.3,0-6.4.2-5.8.6-11.5,1.4-17.2,2.1-.8,0-2-.1-2.4.3-3.4,4-8.3,3.5-12.8,4.2-1.6.2-3.3.2-4.9.6-.9.3-1.7,1.2-2.5,1.9,1,.6,2,1.6,3,1.7,2.9.3,6,0,8.8.5,1.9.4,3.5,1.8,5.2,2.8-1.8.7-3.7,1.5-5.5,2.2-1.7,0-3.3,0-5-.1-2.7-1.4-5.4-2.7-8.1-4.1,0-1.7,0-3.4-.1-5.1h0Z"/>
            <path style="opacity: 0.5686274509803921" d="M56.4,51.1c2.7,1.4,5.4,2.7,8.1,4.1-.8,3.8-3.6,4.8-7,4.9-3.3-.5-5-3.4-5.2-9,1.4,0,2.7,0,4.1,0h0Z"/>
            <path class="cls-49" d="M38.3,36.1c-1.4,7.2-.6,7.9,6.8,8.4,2.5.2,4.8,2.3,7.2,3.5-1.7.7-3.3,1.3-5,1.9.1-3.1-1.7-3.7-4.4-3.9-8.7-.5-9.6-1.5-9.6-9.9,1.7,0,3.3,0,5,0h0Z"/>
            <path style="opacity: 0.8431372549019608" d="M57.4,60.1c3.4-.2,6.2-1.1,7-4.9,1.7,0,3.3,0,5,.1,1.6.3,3.3.5,5,.8-.4,1.7-1.3,3.5-1.2,5.2.2,2.3.4,5.2,1.8,6.7,2.9,2.9,13.1.7,15.6-2.9.7-.1,1.3-.2,2-.3.4.1.7.2,1.1.4-2,4.1-5.2,6.3-10,5.8-2.2-.2-4.4-.2-6.5,0-4.5.3-7.1-1.1-6.7-6.1.2-2.7-1.4-3.9-4-3.9-3,0-6,0-9,0,0-.3,0-.6,0-.9h0Z"/>
            <path style="opacity: 0.6352941176470588" d="M53.3,68.1c0,.8.3,1.7,0,2.5-1.1,3.5.5,4.4,3.7,4.5,4.8.2,9.7.9,14.5.9,3.6,0,6.1,1.3,8,4.2.4,1.2.9,2.5,1.3,3.7l-.3.2c-2-1.3-4-2.7-6-4h.1c-.5-.7-1-1.8-1.6-1.9-7-1.3-14-4.2-21.2-.4-1.4.8-3.7,0-5.5,0,.4-1,.8-2,1.2-3,1-1.3,2.1-2.5,3.1-3.8.8-1,1.5-2.1,2.3-3.1.2,0,.4,0,.6,0h0Z"/>
            <path style="opacity: 0.4745098039215686" d="M66.4,105.9c-1.3,0-2.6,0-3.9,0-.5-.9-1-1.9-1.5-2.8,1.4-.4,2.8-1,4.2-1,13.1,0,26.3,0,39.4,0-.3,2.3-.7,4.6-1,6.8-2.1-1-4.2-2.8-6.3-2.8-10.3-.3-20.6-.1-30.9-.1Z"/>
            <path style="opacity: 0.5803921568627451" d="M47.3,74.8c-.4,1-.8,2-1.2,3,1.9,0,4.1.8,5.5,0,7.2-3.8,14.2-.9,21.2.4.6.1,1.1,1.1,1.6,1.8-4.8-.5-9.5-1-14.3-1.4-.7,0-1.3,0-2,0-6.6.5-13.2.9-19.8,1.4-.3-3.6,1.6-5,5-4.9,1.3,0,2.6-.1,3.9-.2h0Z"/>
            <path style="opacity: 0.3333333333333333" d="M99.5,88.9l-4,.9c0-.3,0-.6.1-.9.7-1.8,1.5-3.6,2.2-5.4-1.6-.5-3.2-1.2-4.8-1.6-.8-.2-1.6,0-2.4,0,0-.3,0-.6,0-.9,2.9,0,5.9,0,8.8.1,0,2.6,0,5.1,0,7.7h0Z"/>
            <path style="opacity: 0.23137254901960785" d="M90.5,82c.8,0,1.7-.2,2.4,0,1.6.4,3.2,1,4.8,1.6-.7,1.8-1.5,3.6-2.2,5.4.2-3.6-.4-6.5-5.1-6,0-.3,0-.6,0-.9h0Z"/>
            <path style="opacity: 0.4117647058823529" d="M90.6,81.1c0,.3,0,.6,0,.9h0c-.3.3-.7.6-1,.9-1.3.8-2.6,1.6-3.8,2.3l-.3-.3c0-.9.1-1.9.2-2.8h0c1.7-.3,3.3-.6,5-1h0Z"/>
            <path style="opacity: 0.4117647058823529" d="M85.7,85.2c-1.8,0-3.6,0-5.3,0l.2-.4c.7,0,1.3,0,2,0h.9c.6,0,1.3,0,1.9,0l.3.3h0Z"/>
            <path style="opacity: 0.3333333333333333" d="M89.5,82.9c.3-.3.7-.6,1-.9,0,.3,0,.6,0,.9-.3,0-.7,0-1,0Z"/>
            <path style="opacity: 0.6470588235294118" d="M82.5,84.9c-.7,0-1.3,0-2,0,0-.3-.1-.5-.2-.8l.3-.2c.6.4,1.2.7,1.8,1.1Z"/>
            <path style="opacity: 0.5490196078431373" d="M132.7,21.1c-3.3,0-6.7,0-10,.1,0-.3,0-.6,0-1,5.8-.8,11.5-1.6,17.2-2.6,1.1-.2,2-1.6,2.9-2.4,4.2,0,8.3,0,12.5-.2,7.9-.2,15.8-.5,23.8-.7-3.1,5.9-8.2,7.7-14.5,6.8-1.1-.2-2.3,0-3.5,0-1.6-.9-3.5-1.4-4.7-2.6-2.8-2.9-6-2.6-9.2-1.8-4.8,1.3-9.6,2.9-14.4,4.4h0Z"/>
            <path style="opacity: 0.33725490196078434" d="M189.1,24.2c-7.2.7-14.4,1.2-21.5,2.1-1,.1-1.8,1.8-2.8,2.8-1.3.3-2.7.7-4,1-.7-.4-1.4-.8-2.1-1.1,0-1.3.1-2.5.2-3.8,6.6-.4,13.3-.5,19.9-1.1,1.6-.1,4.6-1.9,4.5-2.5-.8-4.8,2.4-6,5.7-7.4.4,0,.7,0,1.1,0,1.3.9,2.6,1.9,3.9,2.8-1,1.3-2,2.5-2.9,3.9-.7,1.1-1.3,2.2-2,3.4h0Z"/>
            <path style="opacity: 0.3058823529411765" d="M189,14.2c-3.3,1.3-6.5,2.6-5.7,7.4.1.6-2.8,2.3-4.5,2.5-6.6.6-13.3.8-19.9,1.1,0-.6,0-1.3-.1-2,.7-.7,1.4-1.5,2.1-2.2,1.2,0,2.4-.1,3.5,0,6.4.9,11.4-.9,14.5-6.8.7,0,1.3,0,2,0,1,0,2,0,3,0h5,0Z"/>
            <path style="opacity: 0.6862745098039216" d="M158.7,29c.7.4,1.4.8,2.1,1.1,0,3.3-1.8,4.6-4.8,3.5-5-1.9-9.1.3-13.3,2.4-2.7-.2-5.4-.5-8.1-.7,2.8-1.7,5.5-3.4,8.3-5,5.3-.4,10.6-.8,15.9-1.3h0Z"/>
            <path style="opacity: 0.2901960784313726" d="M160.9,21c-.7.7-1.4,1.5-2.1,2.2-5-3.1-10.2-4.3-16.2-2.4-3,1-6.6.2-9.9.3,4.8-1.5,9.6-3.1,14.4-4.4,3.2-.9,6.4-1.1,9.2,1.8,1.2,1.2,3.1,1.8,4.7,2.6h0Z"/>
            <path style="opacity: 0.2901960784313726" d="M122.6,20.2c0,.3,0,.6,0,1-2.3,0-4.7,0-7,0-2.8-3.3-6.3-4.4-10.6-4-3.6.3-5.8-1.1-5.6-5,.4,0,.8,0,1.2.1.4.6.8,1.6,1.3,1.7,3.9.5,7.7.9,11.6,1.3,3,1.7,6,3.3,9,5h0Z"/>
            <path style="opacity: 0.2901960784313726" d="M142.9,30.3c-2.8,1.7-5.5,3.4-8.3,5-2.3,0-4.6-.1-6.9-.2l.2-.3-.2-2.6h1c.4.3.7.7,1.1,1,2.8.9,5.8,2.4,7.1-2,2-.3,4-.6,6.1-.9h0Z"/>
            <path style="opacity: 0.12549019607843137" d="M136.8,31.2c-1.3,4.3-4.3,2.9-7.1,2,2.4-.7,4.7-1.3,7.1-2Z"/>
            <path style="opacity: 0.2901960784313726" d="M154.8,5.3c.3.7.7,1.3,1,1.9-14.2-.3-28.3-.8-42.5-.8-3.3,0-6.7,1.8-10,2.7.4-1.3.9-2.6,1.3-3.9h50.2Z"/>
            <path style="opacity: 0.9490196078431372" d="M113.6,15.2c-3.9-.4-7.8-.8-11.6-1.3-.5,0-.8-1.1-1.3-1.7.6-.4,1.2-.8,1.8-1.2,6-.3,12-.9,17.9-.9,18.8.2,37.7.6,56.5,1.1,2,0,3.9,1.9,5.8,2.8-.6,0-1.2,0-1.8.1-.7,0-1.3,0-2,0-7.9.2-15.8.5-23.8.7-4.1.1-8.3.1-12.5.2-9.4-.5-18.8,3.3-28.2,0-.3-.1-.6,0-1,.1h0Z"/>
            <path style="opacity: 0.9568627450980393" d="M131.7,105.9c-4.7-.8-9.4-1.5-14.1-2.3,0-.4,0-.9,0-1.3,6.1,0,12.1-.2,18.2-.2-3.2.5-6.5,1-9.8,1.4v.5h5.1c19.6,0,39.2,0,58.7,0,4,0,8,.3,12,.8,7.1.9,7,1,8.3,8-.7-.6-1.3-1.3-2-1.9-2-3.9-5.2-4.9-9.5-4.9-22.3,0-44.6,0-66.9-.1h0Z"/>
            <path style="opacity: 0.6470588235294118" d="M161.9,106.9c-1.6.7-3.3,1.8-4.9,1.9-8.3.2-16.7.2-25,0-1.4,0-2.9-1.2-4.3-1.8,11.4,0,22.8,0,34.3,0h0Z"/>
            <path style="opacity: 0.9333333333333333" d="M213.2,112.1c.6-4.8,4.7-5.1,8.1-5.9,1.9-.5,4-.1,6-.1,0,3.2-1.6,4.9-4.7,5.2-3.1.3-6.3.6-9.4.8h0Z"/>
            <path style="opacity: 0.7764705882352941" d="M314.6,108.9c-12.8,0-25.7-.2-38.5,0-5.6.1-11.2,1.2-16.8,1.8-3,0-6-.1-8.9-.2-2.8-1.6-5.5-3.3-8.3-4.9,2.7,0,5.4.1,8.1.2,1.9,1,3.9,3,5.7,2.8,6.2-.5,12.3-1.8,18.4-2.8,10.7,0,21.4-.2,32.1.2,2.7,0,5.4,1.8,8.1,2.8h0Z"/>
            <path style="opacity: 0.8352941176470589" d="M189.1,24.2c.7-1.1,1.2-2.3,2-3.4.9-1.3,1.9-2.6,2.9-3.9-1.3-.9-2.6-1.9-3.9-2.8,1.5-3,4.1-4.1,7.4-4,5.2,0,10.3,0,15.5,0,1.7,0,3.3.1,5,.1,3.9,0,8-.9,10.9,3.2.5.7,2.2.5,3.3.7,0,.4,0,.7,0,1.1-1.3.4-2.5,1.1-3.8,1.2-.8,0-2.3-.8-2.3-1.3-.1-3.2-2.1-3.9-4.7-3.8-6.6.2-13.3.5-19.9,1-.9,0-2.6,1.6-2.5,2.2,1.1,7.8-5.7,7.5-9.9,9.7h0Z"/>
            <path style="opacity: 0.3568627450980392" d="M181,14.3c.6,0,1.2,0,1.8-.1.4,0,.8,0,1.2,0-1,0-2,0-3,0h0Z"/>
            <path style="opacity: 0.8941176470588236" d="M232.2,15.2c0-.4,0-.7,0-1.1.1-.5.1-1.1.4-1.4,4.9-4.6,19.8-3,23.7,2.5-2.2-.8-4.3-1.8-6.5-2.3-1.8-.4-4.4-1.2-5.3-.4-3.7,3.3-8,2.7-12.2,2.8Z"/>
            <path style="opacity: 0.7725490196078432" d="M99.5,88.9c0-2.6,0-5.1,0-7.7,0-.4,0-.8.1-1.1,3.7.8,6.3,2.2,4.3,6.8-.3.8,1.2,3.3,2.1,3.5,2.5.4,5.2,0,7.7-.2,21.8,0,43.5,0,65.3-.1,0,.3,0,.7,0,1-10.3,0-20.6,0-30.9,0-2.1,0-4.2.6-6.3.9-.7.4-1.4.8-2.1,1.2h-18c-8.5,2.9-17.3,1.5-26,1.7-1.2,0-2.4,0-3.4-.3-.8-.2-1.5-.9-2.2-1.5.7-.3,1.4-.7,2.1-1,2.4-1,4.8-2.1,7.3-3.1h0Z"/>
            <path style="opacity: 0.7764705882352941" d="M90.5,65.2c-2.4,3.6-12.7,5.8-15.6,2.9-1.4-1.4-1.6-4.4-1.8-6.7-.1-1.7.8-3.5,1.2-5.2,1-2,2-3.9,3-5.9,1.2.4,2.9.4,3.7,1.2,4.2,4.3,9.1,4.2,14.4,2.6,0,.6,0,1.3,0,1.9-.6,0-1.2.2-1.8.3-2.8,1.2-5.5,2.5-8.3,3.7-2.1,0-4.2.1-6.2.3-.1,0-.2.6-.4,1,.5,0,.9,0,1.4,0-.1,3.1,1.3,4.4,4.4,4.1,1.6-.2,3.3-.2,4.9-.2.3,0,.7.2,1,.3h0Z"/>
            <path style="opacity: 0.9568627450980393" d="M178.9,90c-21.8,0-43.5,0-65.3.1,4.4-.4,8.8-.6,13.3-1.2,4.7-.6,9.4-1.4,14.1-2.2,1.6-.2,3.3-.7,4.9-.7,10,0,20-.3,30,.2,2.7.1,5.4,2.5,8.1,3.8-1.7,0-3.3,0-5,0h0Z"/>
            <path style="opacity: 0.8784313725490196" d="M98.5,52c.5-.8.8-2.2,1.5-2.4,6.6-1.9,13.2-5,20.3-3.3,2.5.6,4.6,2.9,6.5,4.8.4.5-.4,3.3-1.4,3.8-3.9,1.9-9,.5-12.4,4.2-.2.2-1.7-.7-2.6-1.1.6-1.6,2.1-4.2,1.6-4.7-1.6-1.5-3.9-2.8-6-2.9-2.5-.1-5.1,1-7.7,1.6h0Z"/>
            <path style="opacity: 0.3333333333333333" d="M98.5,52c2.6-.6,5.1-1.7,7.7-1.6,2.1.1,4.4,1.4,6,2.9.5.5-1,3.1-1.6,4.7-2.3,1-4.7,2-7,3-1.3-.3-2.6-.8-3.9-.8-2.9,0-4.4-1.3-4.3-4.2,0-.6,0-1.3,0-1.9,1-.7,2.1-1.3,3.1-2h0Z"/>
            <path style="opacity: 0.792156862745098" d="M80.5,41.1c5.7-.7,11.5-1.5,17.2-2.1,2.1-.2,4.4.3,6.4-.2,1.9-.4,3.7-1.7,5.5-2.6,1.3,0,2.6,0,4,0,0,3.2-2.2,4.3-4.8,4.6-2.9.4-6,0-8.9.5-3,.5-5.9,1.7-8.9,2.3-5.1,1-10.3,1.8-15.5,2.8,1.7-1.7,3.3-3.4,5-5.1h0Z"/>
            <path style="opacity: 0.8588235294117647" d="M178.9,90c1.7,0,3.3,0,5,0,1.6,4,0,6-4,6.4-2.5.3-5,.2-7.4.6-2.4.3-5.3.2-7.2,1.4-6.8,4.5-14.2,3.7-21.6,3.5.9-.6,2-1.8,2.8-1.7,7.2.8,13.2-2.4,19.4-5.1,3.4,0,6.9,0,10.3,0,2.8,0,4.1-1.1,2.7-4,0-.3,0-.7,0-1h0Z"/>
            <path style="opacity: 0.7294117647058823" d="M80.5,41.1l-5,5.1c.6,1.3,1.3,2.7,1.9,4-1,2-2,3.9-3,5.9-1.6-.3-3.3-.5-5-.8,1.8-.7,3.7-1.5,5.5-2.2-1.7-1-3.4-2.5-5.2-2.8-2.9-.6-5.9-.2-8.8-.5-1.1-.1-2-1.1-3-1.7.8-.6,1.6-1.6,2.5-1.9,1.6-.4,3.3-.4,4.9-.6,4.5-.7,9.3-.2,12.8-4.2.4-.5,1.6-.2,2.4-.3h0Z"/>
            <path style="opacity: 0.7254901960784313" d="M165.9,95c-6.2,2.8-12.2,6-19.4,5.1-.9,0-1.9,1.1-2.8,1.7-.3,0-.6,0-.9,0l-2.1-.9c2.2-4.9,6.2-6.2,11.2-5.9,3.6.2,7.2,0,10.9,0,1,0,2.1,0,3.1,0h0Z"/>
            <path style="opacity: 0.8392156862745098" d="M142.7,36c4.2-2.1,8.3-4.2,13.3-2.4,3,1.1,4.8-.2,4.8-3.5,1.3-.3,2.7-.7,4-1,2,3.6.9,5.9-3.2,6.2-6.3.4-12.7.5-19,.6h0Z"/>
            <path style="opacity: 0.8705882352941177" d="M274.4,105.9c-6.1,1-12.2,2.3-18.4,2.8-1.8.2-3.8-1.8-5.7-2.8h24.1Z"/>
            <path style="opacity: 0.49411764705882355" d="M95.4,55.9c0,2.9,1.4,4.2,4.3,4.2,1.3,0,2.6.5,3.9.8-4-.2-7.9.1-10,4.3-.4-.1-.7-.2-1.1-.4,1.1-2.2.7-3.6-2-3.7h-10.3c-.5,0-.9,0-1.4,0,.1-.3.2-1,.4-1,2.1-.1,4.1-.2,6.2-.3,3.1-.5,7.6,2.2,8.3-3.7.6,0,1.2-.2,1.8-.3h0Z"/>
            <path style="opacity: 0.8392156862745098" d="M126.7,36.1c-3.7,0-7.4,0-11.1,0,2.4-1.3,4.7-2.7,7.1-4h0c.3.7.7,1.4,1,2h0c1,.3,2,.7,3,1h0c0,.3,0,.7,0,1h0Z"/>
            <path style="opacity: 0.8392156862745098" d="M82.5,84.9c-.6-.4-1.2-.7-1.8-1.1-.4-1.2-.9-2.5-1.3-3.7,2.1,0,4.2,0,6.3,0,0,.6,0,1.3,0,1.9h0s-2.1,2.9-2.1,2.9h-1Z"/>
            <path style="opacity: 0.6941176470588235" d="M122.7,32.1l-7.1,4c-.7,0-1.4,0-2.1,0,2.1-3.3,4.8-5.7,9.1-4.9,0,.3,0,.6,0,1h0Z"/>
            <path style="opacity: 0.6470588235294118" d="M85.6,82.1c0-.6,0-1.3,0-1.9,4.6,0,9.2,0,13.9,0,0,.4,0,.8-.1,1.1-2.9,0-5.9,0-8.8-.1-1.6.3-3.3.7-5,1h0Z"/>
            <path style="opacity: 0.6941176470588235" d="M126.7,36.1c0-.3,0-.7,0-1l1.2-.4-.2.3c-.3.3-.7.7-1,1h0Z"/>
            <path style="opacity: 0.596078431372549" d="M162.8,94.9c-3.6,0-7.3.3-10.9,0-5.1-.3-9.1.9-11.2,5.9h-18.1c2.9-.3,5.8-.8,8.8-.8,6.7-.2,7.2-.5,8.3-7,.7-.4,1.4-.8,2.1-1.2,6.4,0,12.8,0,19.2.2,1.9,0,4.2,0,1.8,2.9h0Z"/>
            <path style="opacity: 0.5450980392156862" d="M127.9,34.8l-1.2.4h0c-1-.3-2-.7-3-1h0c-.3-.7-.7-1.3-1-2h0c0-.3,0-.7,0-1,1.7.3,3.3.7,5,1l.2,2.6h0Z"/>
            <path style="opacity: 0.34509803921568627" d="M90.5,61.1c2.8.1,3.2,1.5,2,3.7-.7.1-1.3.2-2,.3-.3,0-.7-.2-1-.3.3-1.3.6-2.5,1-3.8h0Z"/>
            <path style="opacity: 0.6470588235294118" d="M83.5,84.9l2.1-2.9c0,.9-.1,1.9-.2,2.8-.6,0-1.3,0-1.9,0Z"/>
            <path style="opacity: 0.7019607843137254" d="M113.6,15.2c.3,0,.7-.2,1-.1,9.4,3.4,18.8-.4,28.2,0-1,.8-1.8,2.3-2.9,2.4-5.7,1-11.5,1.8-17.2,2.6-3-1.7-6-3.3-9-5Z"/>
            <path style="opacity: 0.6941176470588235" d="M162.8,94.9c2.4-2.8,0-2.8-1.8-2.9-6.4-.1-12.8-.1-19.2-.2,2.1-.3,4.2-.8,6.3-.9,10.3,0,20.6,0,30.9,0,1.4,2.8.1,3.9-2.7,4-3.4,0-6.9,0-10.3,0-1,0-2.1,0-3.1,0h0Z"/>
            <path style="opacity: 0.22745098039215686" d="M90.5,61.1c-.3,1.3-.6,2.5-1,3.8-1.6,0-3.3,0-4.9.2-3.1.3-4.6-1-4.4-4.1h10.3Z"/>
            <path style="opacity: 0.596078431372549" d="M93.6,56.2c-.6,5.9-5.2,3.2-8.3,3.7,2.8-1.2,5.5-2.5,8.3-3.7Z"/>
            <path style="opacity: 0.6941176470588235" d="M123.7,34.1c1,.3,2,.7,3,1-1-.3-2-.7-3-1Z"/>
            <path style="opacity: 0.6941176470588235" d="M122.7,32.1c.3.7.7,1.3,1,2-.3-.7-.7-1.3-1-2Z"/>
        </g>
    </g>
</svg>
