<?xml version="1.0" encoding="UTF-8"?>
<svg xmlns="http://www.w3.org/2000/svg" viewBox="0 0 129 119">
    <g id="_图层_1">
        <g>
            <path style="opacity: 0.00392156862745098" d="M68.5.1c19.2,0,38.5,0,57.7,0,2.4,0,2.9.4,2.8,2.8-.1,18,0,36.1,0,54.2-1.2-.6-2.3-1.2-3.6-1.6-1.1-.3-2.4-.3-3.6-.5-2.8-1.2-3.1-3.6-2.9-6.2.4-4.1-1.9-6.3-5.5-7.6-2.2-.8-4.2-1.9-6.4-2.9,1.2-2.5,1.7-5.4-1.7-5.9-4.5-.7-4.7-3.3-4.6-6.7,0-2.1,0-4.3-.3-6.4-.8-4.6-2.9-5.6-7.9-4.4l-8.1-.8c-1.6-.2-3.3-.5-4.9-.8-1-.8-2-1.5-3-2.3-1-1.3-1.9-2.6-2.9-3.8,2.2-2.6,0-2.8-1.8-3.7-1.3-.7-2.3-2.1-3.4-3.2h0Z"/>
            <path style="opacity: 0.00784313725490196" d="M128.9,65c0,17,0,33.9,0,50.9,0,2.5-.6,3.1-3.1,3.1-30.6,0-61.1,0-91.7,0,6.5-1.3,12.9-2.6,19.4-3.9,5.7,1.7,11-5.1,17-.8.2.1.8-.5,1.3-.6,2.2-.5,4.5-1.3,6.7-1.4,3.7-.2,7.4.2,11-.2,1.5-.2,2.7-2,4.1-3.1,0-.7,0-1.3-.1-2,6.4-3.3,12.8-6.6,19.1-9.9,0-2,0-4,0-6.1.1-.3.2-.6.3-.9,1.3-.3,3.3-.3,3.6-1.1,1.9-4.1,3.7-8.2,5-12.5.7-2.3.2-4.9.3-7.4,2.3-1.3,4.7-2.7,7-4h0Z"/>
            <path style="opacity: 0.7529411764705882" d="M-1,10.1v-4c5.1.4,10.1.8,15.2,1.2.3.3.7.6,1,.8,2.7-1,5.3-1.9,8-2.9.6.7,1.6,1.4,1.7,2.2.9,4.7,2.3,3.2,4.1.5.2-.3.8-.5,1.3-.7-1.2,2.2-.3,3.4,2,3.9-1,1.2-1.9,3.4-2.9,3.5-5.9.4-11.9.4-17.8.3-1.5,0-3.8-.8-4.2-1.8-1.5-3.8-4.4-3.4-7.4-3.1-.3,0-.6,0-1,0h0Z"/>
            <path style="opacity: 0.20392156862745098" d="M53.6,115c-6.5,1.3-12.9,2.6-19.4,3.9-10.4,0-20.8-.2-31.2,0-3.5,0-4.8-.7-4-4.1.4,0,.8,0,1.2-.1.9.3,1.8.6,2.7,1,1-.3,2-.6,3.1-.9,1.9.4,3.8,1.1,5.7,1,9.4-.2,18.8-.7,28.2-1,4.6,0,9.1.2,13.7.2Z"/>
            <path style="opacity: 0.3764705882352941" d="M14.2,7.3c-5.1-.4-10.1-.8-15.2-1.2v-2c4.5-.3,8.9-.6,13.4-.9,2.1-.2,4.6.2,4.7-3.1h4c.8,3.4,3.6,3,6,3,11.3,0,22.7,0,34.1,0-.3.4-.5.9-.7,1.3-7.8,0-15.7,0-23.5,0-4.6,0-9.2.6-13.8.9-2.7,1-5.3,1.9-8,2.9-.3-.3-.7-.6-1-.8h0Z"/>
            <path style="opacity: 0.00392156862745098" d="M61.2,3c-11.3,0-22.7.1-34.1,0-2.4,0-5.2.5-6-3h42.3c-.7,1-1.5,1.9-2.2,2.9Z"/>
            <path style="opacity: 0.8392156862745098" d="M61.2,3c.7-1,1.5-1.9,2.2-2.9h1c1.3,1.4,2.6,2.8,3.8,4.2,1.1.9,2.2,1.8,3.2,2.7.6,0,1.2.2,1.8.3h.3v-.2c1.1,1.3,2,2.6,3,3.8-2.4,4.5-9.4,4.6-12.2.2,0-3.4-2.7-4-5-5,.4-.6.7-1.2,1.1-1.8.3-.4.5-.8.7-1.3h0Z"/>
            <path style="opacity: 0.34509803921568627" d="M.2,114.8c-.4,0-.8,0-1.2.1V10.1c.3,0,.6,0,1,0,0,4.8,0,9.6,0,14.5,0,28.8.1,57.5.2,86.3,0,1.3,0,2.6,0,3.9Z"/>
            <path style="opacity: 0.058823529411764705" d="M17.1.1c-.1,3.2-2.6,2.9-4.7,3.1-4.5.3-8.9.6-13.4.9C-1.8.7-.5-.2,3,0c4.7.4,9.4,0,14.1,0Z"/>
            <path style="opacity: 0.6862745098039216" d="M128.9,65c-2.3,1.3-4.7,2.7-7,4-.3-.3-.7-.6-1-.9l1-2.9c4.6-1,4.7-3.7,2.9-7.2-1-1-2-2.1-3.1-3.2,1.2.2,2.5.2,3.6.5,1.3.4,2.4,1.1,3.6,1.6v8h0Z"/>
            <path style="opacity: 0.48627450980392156" d="M68.3,4.3c-1.3-1.4-2.6-2.8-3.8-4.2h4c1.1,1.1,2.1,2.5,3.4,3.2,1.7.9,4,1.1,1.8,3.7v.2h-.4c-.6-.7-1.2-1.4-1.8-2.1h0c-.7-.4-1.4-.7-2.1-.9-.4,0-.7,0-1.1,0h0Z"/>
            <path style="opacity: 0.996078431372549" d="M121.9,65.2c-.3,1-.7,1.9-1,2.9-1,1.6-2.4,3-3.1,4.7-1.3,3.3-2.4,6.8-3.3,10.2-.6,2.3-1,4.7-1.5,7,0,.3-.2.6-.3.9,0,2,0,4,0,6.1l-19.1,9.9c-2.3.7-4.6,2-7,2.1-3.9.1-7.9-.6-11.8-.9-4.1-.3-8.2-.7-12.3-1.1,1.8-1.9,1.1-2.8-1.3-3-12.5-1.4-24,5.2-36.5,4.7-3.6-.1-7.3,1.8-11,2.1-4.5.4-9,0-13.5,0C.1,82.1,0,53.4,0,24.6c0-4.8,0-9.6,0-14.5,3-.4,5.9-.8,7.4,3.1.4,1,2.7,1.7,4.2,1.8,5.9.1,11.9.1,17.8-.3,1,0,1.9-2.3,2.9-3.5,7.7-3.1,9.8-2.5,15.1,3.6.5.6,1.2,1.2,1.9,1.7,3.6,2.7,5.6,2,7.5-2.1.6-1.4,2.5-2.1,3.8-3.2,0,1.8-.4,3.8.3,5.3.8,1.7,2.6,2.9,4.1,4.2.2.1,2-1.2,1.9-1.3-3.6-7.1,2.8-3.4,4.7-4.2,2.6-1,5.5-1.4,8.2-2,1.6.2,3.3.5,4.9.8,2.4,1.3,4.9,2.5,7.3,4,1.4.9,2.6,2.1,3.9,3.1-.5,3.1,1.7,8.7-5.4,5.3-.3-.2-.9,0-1.4.3-5,2.6-5,2.6-6.5-2.4-.3-.9-1.3-1.6-2-2.4-.6.9-1.5,1.7-1.7,2.7-.6,3.8,4.2,8,9,8.1,3,0,6,.2,9,.2,1.4.3,2.7.7,4.1,1,2.1,1.4,4.2,2.7,6.2,4.1,2.1,1,4.2,2.1,6.4,2.9,3.6,1.3,5.9,3.5,5.5,7.6-.3,2.6,0,5,2.9,6.2,1,1,2,2.1,3.1,3.2-1,2.4-1.9,4.8-2.9,7.2h0Z"/>
            <path style="opacity: 0.3254901960784314" d="M107,38.1c-2.1-1.4-4.2-2.7-6.2-4.1-1.6-2.3-3-4.4-2.1-7.7,1.3-4.8-1.3-9-6.1-11.6,4.9-1.3,7.1-.2,7.9,4.3.4,2.1.4,4.3.3,6.4,0,3.4,0,6,4.6,6.7,3.4.5,2.9,3.4,1.7,5.9h0Z"/>
            <path style="opacity: 0.8" d="M92.5,14.8c4.9,2.5,7.4,6.7,6.1,11.6-.9,3.2.5,5.4,2.1,7.7-1.4-.3-2.7-.7-4.1-1-.1-1.8-.2-3.5-.3-5.3-.2-2.2-.5-4.5-.7-6.7-1.3-1.1-2.5-2.3-3.9-3.1-2.4-1.4-4.9-2.7-7.3-4l8.1.8h0Z"/>
            <path style="opacity: 0.9529411764705882" d="M79.6,13.2c-2.7.6-5.6,1-8.2,2-1.9.7-8.3-2.9-4.7,4.2,0,.1-1.7,1.4-1.9,1.3-1.5-1.3-3.3-2.5-4.1-4.2-.7-1.5-.2-3.5-.3-5.3h4c2.8,4.4,9.7,4.3,12.2-.2,1,.8,2,1.5,3,2.3h0Z"/>
            <path style="opacity: 0.6352941176470588" d="M62.4,107c4.1.4,8.2.7,12.3,1.1,3.9.3,7.9,1,11.8.9,2.3,0,4.7-1.3,7-2.1,0,.7,0,1.3.1,2-1.6.8-3.2,2.1-4.8,2.2-6.7.3-13.4-.1-20.1.4-9.6.8-19.2,2.2-28.8,3.3-9.4.3-18.8.8-28.2,1-1.9,0-3.8-.7-5.7-1,7.3-.3,14.6-.8,21.9-.8,5.1,0,9.9-.5,14.4-3.1,1.4,0,2.7.2,4.1.2,2,0,4.2.3,6.1-.2,3.4-1,6.6-2.6,9.9-3.9h0Z"/>
            <path style="opacity: 0.6470588235294118" d="M113,90c.5-2.3.8-4.7,1.5-7,1-3.4,2-6.9,3.3-10.2.7-1.7,2-3.1,3.1-4.7.3.3.7.6,1,.9,0,2.5.4,5.1-.3,7.4-1.3,4.3-3.1,8.4-5,12.5-.4.8-2.4.7-3.6,1.1h0Z"/>
            <path style="opacity: 0.21176470588235294" d="M39.9,114.8c9.6-1.1,19.2-2.5,28.8-3.3,6.7-.6,13.4-.1,20.1-.4,1.6,0,3.2-1.4,4.8-2.2-1.4,1.1-2.6,2.9-4.1,3.1-3.6.4-7.3,0-11,.2-2.3.1-4.5.9-6.7,1.4-.5.1-1.1.8-1.3.6-5.9-4.2-11.2,2.5-17,.8-4.6,0-9.1-.2-13.7-.2h0Z"/>
            <path style="opacity: 0.6470588235294118" d="M112.7,97c0-2,0-4,0-6.1,0,2,0,4,0,6.1Z"/>
            <path style="opacity: 0.9176470588235294" d="M64.4,11.1h-4c-1.3,1.1-3.2,1.8-3.8,3.2-1.9,4.1-3.8,4.8-7.5,2.1-.7-.5-1.3-1.1-1.9-1.7-5.3-6.2-7.4-6.7-15.1-3.6-2.3-.5-3.2-1.7-2-3.9,9.7-.4,19.4-.7,29.1-1.1,2.3,1,5.1,1.6,5,5h0Z"/>
            <path style="opacity: 0.6470588235294118" d="M59.4,6.1c-9.7.4-19.4.7-29.1,1.1-.4.2-1,.3-1.3.7-1.8,2.7-3.2,4.1-4.1-.5-.2-.8-1.1-1.4-1.7-2.2,4.6-.3,9.2-.8,13.8-.9,7.8-.2,15.7,0,23.5,0-.4.6-.7,1.2-1.1,1.8h0Z"/>
            <path style="opacity: 0.8745098039215686" d="M14.2,7.3c.3.3.7.6,1,.8-.3-.3-.7-.6-1-.8Z"/>
            <path style="opacity: 0.9254901960784314" d="M62.4,107c-3.3,1.3-6.5,2.9-9.9,3.9-1.9.6-4.1.2-6.1.2s-2.7-.2-4.1-.2c-2.6-.4-5.2-1-7.8-1.3-1.9-.2-3.9-.1-5.8.2-2.7.5-5.3,1.7-8,1.9-4.5.3-9,.2-13.6.1-2.6,0-4.1,1-4.2,3.8-.9-.3-1.8-.6-2.7-1,0-1.3,0-2.6,0-3.9,4.5,0,9,.3,13.5,0,3.7-.3,7.3-2.3,11-2.1,12.5.5,23.9-6.1,36.5-4.7,2.4.3,3.1,1.1,1.3,3h0Z"/>
            <path style="opacity: 0.7725490196078432" d="M3,115.7c0-2.7,1.6-3.8,4.2-3.8,4.5,0,9.1.2,13.6-.1,2.7-.2,5.3-1.5,8-1.9,1.9-.3,3.9-.4,5.8-.2,2.6.2,5.2.8,7.8,1.3-4.5,2.6-9.3,3.1-14.4,3.1-7.3,0-14.6.5-21.9.8-1,.3-2,.6-3.1.9h0Z"/>
            <path style="opacity: 0.615686274509804" d="M68.3,4.3c.4,0,.7,0,1.1,0,.7.3,1.4.6,2.1.9h0c0,.7,0,1.3,0,1.9-1.1-.9-2.2-1.8-3.2-2.7h0Z"/>
            <path style="opacity: 0.596078431372549" d="M71.5,7c0-.6,0-1.2,0-1.8.6.7,1.2,1.4,1.8,2.1-.6,0-1.2-.2-1.8-.3h0Z"/>
            <path style="opacity: 0.9254901960784314" d="M121.9,65.2c1-2.4,1.9-4.8,2.9-7.2,1.9,3.5,1.7,6.2-2.9,7.2Z"/>
            <path class="cls-6" d="M71.5,5.1c-.7-.3-1.4-.6-2.1-.9.7.3,1.4.6,2.1.9Z"/>
            <path style="opacity: 0.9372549019607843" d="M95.7,21.1c.2,2.2.5,4.5.7,6.7.2,1.8.2,3.5.3,5.3-3,0-6-.2-9-.2-4.8-.1-9.6-4.4-9-8.1.2-1,1.1-1.8,1.7-2.7.7.8,1.7,1.5,2,2.4,1.6,4.9,1.5,4.9,6.5,2.4.4-.2,1-.5,1.4-.3,7,3.4,4.9-2.3,5.4-5.3h0Z"/>
        </g>
    </g>

</svg>
