<?xml version="1.0" encoding="UTF-8"?>
<svg xmlns="http://www.w3.org/2000/svg" viewBox="0 0 176 120">
    <g id="_图层_1">
        <path style="opacity: 0.011764705882352941" d="M38.2-.6h106.5c0,.3,0,.7,0,1-.9,2-.7,3.2,1.9,3-2,1-4,2-6,3-.7,0-1.3,0-2,0-.7-.6-1.3-1.3-2-1.9-2.3-.3-4.6-1-6.9-.9-17.6.6-35.3,1.3-53,2-1.3-.4-2.6-.9-3.8-1.3-1.5,0-3.4-.8-4.3-.1-5.5,4-11.8,2-17.7,2.3-1,0-3-1.5-2.9-1.8,1.5-5.4-2.5-3.7-5-4.1-1.6-.3-3.3-.7-4.9-1h0Z"/>
        <path style="opacity: 0.0196078431372549" d="M177.1,116.2c.9,4.3-.8,5.2-5.1,5.2-38.2-.2-76.4-.1-114.6-.1,0-.4,0-.8-.1-1.2,0-.9,0-1.9,0-2.8,5,0,10,0,15,0,32.4,0,64.9,0,97.3,0,2.5,0,5-.6,7.5-1h0Z"/>
        <path style="opacity: 0.0196078431372549" d="M57.3,120c0,.4,0,.8.1,1.2-18.1,0-36.2-.1-54.3.1-3.8,0-5.3-.9-4.6-4.7.2-1.2,0-2.4,0-3.6.3,0,.6,0,.9,0,0,.3.1.6.2.8,1.6.7,3.1,2,4.7,2,11.1,0,22.2-.4,33.4-.4,1.3,0,3.5.5,3.9,1.5,1.7,3.8,4.7,3.2,7.7,3.1,2.7,0,5.3-.1,8-.2h0Z"/>
        <path style="opacity: 0.06666666666666667" d="M177.1,116.2c-2.5.3-5,1-7.5,1-32.4,0-64.9,0-97.3,0s-10,0-15,0c0-1,0-1.9,0-2.9,7.2.6,14.4,1.9,21.6,1.8,23.5,0,46.9-.7,70.4-.9,6.6,0,13.1.9,19.7.7,2.3,0,4.7-1.9,7-2.9.3-.3.7-.7,1-1v4.1h0Z"/>
        <path style="opacity: 0.8117647058823529" d="M177.1,112.1c-.3.3-.7.7-1,1-8.4-.3-16.9-.6-25.3-.8-5.4-.2-10.9-.2-16.3-.2,5.6-4.3,12.1-5.9,18.6-4,7.7,2.2,15.2,2.6,22.9,1l1.1,2.1v1h0Z"/>
        <path style="opacity: 0.6549019607843137" d="M177.1,3.5v5.1c-.7.3-1.4.7-2.2,1-.5-.4-1.1-.8-1.6-1.2-4.4-3.9-4.5-3.8-7.9,1.2-.7,1-2.4,1.7-3.7,1.9-6.3.9-9.1-3.7-12.1-8,.3-1,.7-2,1-2.9,1,0,2,0,3,0,1.4,1,2.7,2,4.1,3,1.3,0,2.7,0,4,0h14.4c.3,0,.6,0,.9,0h0Z"/>
        <path style="opacity: 0.2235294117647059" d="M-.5,113.2c-.3,0-.6,0-.9,0V3.5c.4,0,.9.1,1.3.2,0,1.3,0,2.6,0,3.9,0,33.8,0,67.6,0,101.5-.1.3-.1.6,0,1,0,.7,0,1.4,0,2-.1.4-.2.8-.3,1.1h0Z"/>
        <path style="opacity: 0.1843137254901961" d="M38.2-.6c1.6.3,3.2.7,4.9,1,2.4.4,6.5-1.2,5,4.1-.1.3,1.9,1.9,2.9,1.8,5.9-.3,12.2,1.7,17.7-2.3.9-.7,2.8,0,4.3.1-.4.6-.8,1.2-1.2,1.8-7.3.6-14.7,1.2-22.1,1.6-1.5,0-3-1.1-4.6-1.7-2.3-.9-4.6-1.7-6.8-2.6-1.8-.3-3.7-.3-5.3-1-1.4-.6-2.6-1.9-3.9-2.9,3,0,6.1,0,9.1,0Z"/>
        <path style="opacity: 0.4666666666666667" d="M175,9.6c.7-.3,1.4-.7,2.2-1v102.6l-1.1-2.1c0-31.2.1-62.4,0-93.6,0-2-.7-3.9-1.1-5.9h0Z"/>
        <path style="opacity: 0.3254901960784314" d="M29-.6c1.3,1,2.4,2.3,3.9,2.9,1.6.7,3.5.7,5.3,1l-13.2.2c-5.1,0-10.2,0-15.2,0,1.4-1.3,2.7-2.7,4.1-4h15.2Z"/>
        <path style="opacity: 0.058823529411764705" d="M13.8-.6c-1.4,1.3-2.7,2.7-4.1,4-3.3,0-6.6.2-9.8.2-.4,0-.9-.1-1.3-.2C-2.2,0-.9-1,2.7-.7c3.7.4,7.4,0,11.1,0Z"/>
        <path style="opacity: 0.07450980392156863" d="M157.9,3.5c-1.4-1-2.7-2-4.1-3,0-.4,0-.7,0-1.1h8.1c0,.3,0,.7,0,1h0c-1.4,1.1-2.8,2-4.1,3h0Z"/>
        <path style="opacity: 0.17647058823529413" d="M162,.5c0-.3,0-.7,0-1,3.7,0,7.5.3,11.1,0,3.5-.4,4.8.7,4.1,4.2-.3,0-.6,0-.9,0-1.4-1-2.8-2.6-4.3-2.8-3.3-.4-6.6-.1-9.9-.1h0Z"/>
        <path style="opacity: 0.2235294117647059" d="M153.8-.6c0,.4,0,.7,0,1.1-1,0-2,0-3,0-1,0-2,0-3,0-1,0-2.1,0-3.1,0,0-.3,0-.7,0-1,3,0,6.1,0,9.1,0Z"/>
        <path style="opacity: 0.996078431372549" d="M175,9.6c.4,2,1.1,3.9,1.1,5.9,0,31.2,0,62.4,0,93.6-7.7,1.6-15.2,1.2-22.9-1-6.5-1.9-13-.2-18.6,4-15.9.4-31.7.7-47.6,1.1,0-1-.1-2-.2-3,5.5-.2,11-.4,16.5-.5,4,0,8.1.3,12.1.3.7,0,1.4-.7,2.1-1.1-.7-.6-1.2-1.6-2-1.7-3-.5-6-1.1-9-1.1-11.3.2-22.5.7-33.8,1-3.8.3-7.5.6-11.2.9h-22.7c0-.7,0-1.4,0-2.1,3.3,0,6.6,0,9.8,0,.9,0,1.7-.8,2.6-1.2-.8-.8-1.5-2.2-2.3-2.1-4.7,0-9.3.3-14,.8-3.3.3-6.6,1.7-9.8,1.5-3.6-.2-7.1-1.8-10.7-2.3-1.2-.2-2.5.9-3.8,1.4.8.7,1.5,1.5,2.3,2.1.7.6,1.5,1.1,2.2,1.6-1,.5-2,1.3-3,1.3-4,.2-8.1,0-12.1.1,0-33.8,0-67.6,0-101.5,3.3,0,6.6,0,9.9-.1,4.2-.6,8.5-1.8,12.7-1.7,6.6.2,13.1,1.2,19.7,1.8,1.8,1.2,3.4,3.3,5.3,3.5,8.5.7,17.2,1.7,25.2-2.6,2.4,1,4.8,2.9,7.2,3,15.3.3,30.7.4,46,0,5.2-.1,10.9-.3,14.8-5,2-1,4-2,6-3v.3c0,0,.4,0,.4,0,.3,0,.5-.1.7-.2.7,0,1.3,0,2,0,3,4.3,5.8,8.9,12.1,8,1.3-.2,3-.9,3.7-1.9,3.4-5,3.5-5.1,7.9-1.2.5.4,1.1.8,1.6,1.2h0Z"/>
        <path style="opacity: 0.8745098039215686" d="M140.6,6.4c-3.9,4.8-9.6,4.9-14.8,5-15.3.4-30.7.3-46,0-2.4,0-4.8-1.9-7.2-3,0-.4,0-.9.1-1.3,22-.3,43.9-.6,65.9-.9.7,0,1.3,0,2,0h0Z"/>
        <path style="opacity: 0.1607843137254902" d="M138.6,6.3c-22,.3-43.9.6-65.9.9-.3-.4-.7-.8-1-1.1.4-.6.8-1.2,1.2-1.8,1.3.4,2.6.9,3.8,1.3,1.6.3,3.3,1,4.9.9,16.9-.3,33.7-.6,50.6-1,1.5,0,2.9-.7,4.4-1,.7.6,1.3,1.3,2,1.9h0Z"/>
        <path style="opacity: 0.10588235294117647" d="M136.6,4.4c-1.5.3-2.9,1-4.4,1-16.9.4-33.7.8-50.6,1-1.6,0-3.3-.6-4.9-.9,17.6-.7,35.3-1.4,53-2,2.3,0,4.6.6,6.9.9h0Z"/>
        <path style="opacity: 0.4196078431372549" d="M144.7.4c1,0,2.1,0,3.1,0,0,.6,0,1.3-.1,1.9-.2.4-.5.9-.7,1.3h-.3c0,0,0-.3,0-.3-2.6.2-2.8-1-1.9-3h0Z"/>
        <path style="opacity: 0.2549019607843137" d="M57.5,114.3c0,1,0,1.9,0,2.9,0,.9,0,1.9,0,2.8-2.7,0-5.3.1-8,.2-2.4-2.3-4.7-4.7-7.1-7h15.2c0,.4,0,.7,0,1.1h0Z"/>
        <path style="opacity: 0.6313725490196078" d="M57.4,113.2h-15.2c-2.6.3-5.3.9-7.9.9-11.5,0-23.1,0-34.6,0,0-.3-.1-.6-.2-.8.1-.4.2-.8.3-1.1,13.4-.7,26.8.7,40.3-1.5,11.5-1.9,23.6-.4,35.4-.6,2.5,0,5-.6,7.5-.9,1.3.3,2.6.7,3.8,1,0,1,.1,2,.2,3-9.8,0-19.7,0-29.5.1h0Z"/>
        <path style="opacity: 0.19215686274509805" d="M-.3,114.1c11.5,0,23.1.1,34.6,0,2.6,0,5.3-.6,7.9-.9,2.4,2.3,4.7,4.7,7.1,7-3,0-6.1.7-7.7-3.1-.4-.9-2.5-1.5-3.9-1.5-11.1,0-22.2.4-33.4.4-1.6,0-3.1-1.3-4.7-2h0Z"/>
        <path class="cls-18" d="M57.4,113.2c9.8,0,19.7,0,29.5-.1,15.9-.4,31.7-.7,47.6-1.1,5.4,0,10.9,0,16.3.2,8.4.2,16.9.6,25.3.8-2.3,1-4.6,2.8-7,2.9-6.6.1-13.1-.8-19.7-.7-23.5.2-46.9.8-70.4.9-7.2,0-14.4-1.2-21.6-1.8,0-.4,0-.7,0-1.1h0Z"/>
        <path style="opacity: 0.4392156862745098" d="M162,.5c3.3,0,6.7-.3,9.9.1,1.5.2,2.9,1.8,4.3,2.8-4.8,0-9.6,0-14.4,0,0-1,.1-1.9.2-2.9h0c0,0,0,0,0,0Z"/>
        <path style="opacity: 0.2549019607843137" d="M162,.5l-.2,2.9c-1.3,0-2.7,0-4,0,1.4-1,2.8-2,4.1-3h0Z"/>
        <path style="opacity: 0.6941176470588235" d="M147.7,2.4c0-.6,0-1.3.1-1.9,1,0,2,0,3,0-.3,1-.7,2-1,2.9-.7,0-1.3,0-2,0,0-.4,0-.7,0-1.1Z"/>
        <path style="opacity: 0.7803921568627451" d="M82.9,109.1c-2.5.3-5,.8-7.5.9-11.8.1-23.9-1.3-35.4.6-13.5,2.2-26.9.8-40.3,1.5,0-.7,0-1.4,0-2,4,0,8.1.1,12.1,0,1.4,0,3.2-.2,4.2-1.1,5.7-5,13-4.2,18.4-2.1,9.2,3.6,17.9,2.2,26.9,1.2,3.8-.3,7.5-.6,11.2-.9,3.4.7,6.8,1.3,10.2,2h0Z"/>
        <path style="opacity: 0.9686274509803922" d="M61.4,108c-9,1-17.7,2.4-26.9-1.2-5.4-2.1-12.7-2.9-18.4,2.1-1,.9-2.8,1-4.2,1.1-4,.1-8.1,0-12.1,0,0-.3,0-.6,0-1,4,0,8.1,0,12.1-.1,1,0,2-.9,3-1.3-.7-.5-1.5-1-2.2-1.6-.8-.7-1.5-1.4-2.3-2.1,1.3-.5,2.6-1.5,3.8-1.4,3.6.6,7.1,2.2,10.7,2.3,3.2.2,6.5-1.2,9.8-1.5,4.6-.5,9.3-.7,14-.8.8,0,1.5,1.4,2.3,2.1-.9.4-1.7,1.2-2.6,1.2-3.3.1-6.6,0-9.8,0,0,.7,0,1.4,0,2.1,0,0,22.7,0,22.7,0Z"/>
        <path style="opacity: 0.7568627450980392" d="M9.7,7.5c-3.3,0-6.6,0-9.9.1,0-1.3,0-2.6,0-3.9,3.3,0,6.6-.2,9.8-.2,5.1,0,10.2,0,15.2,0,0,.3,0,.6,0,.9-2.5,0-5-.4-7.4.2-2.7.6-5.3,1.9-7.9,2.9h0Z"/>
        <path style="opacity: 0.7176470588235294" d="M25,4.4c0-.3,0-.6,0-.9l13.2-.2c2.3.9,4.6,1.7,6.8,2.6,1.5.6,3.1,1.8,4.6,1.7,7.4-.3,14.7-1,22.1-1.6.3.4.7.8,1,1.1v1.3c-8.2,4.3-16.8,3.4-25.4,2.6-1.9-.2-3.5-2.3-5.3-3.5-1.6-.7-3.1-1.7-4.7-2-4.1-.6-8.2-.9-12.3-1.3Z"/>
        <path style="opacity: 0.8509803921568627" d="M82.9,109.1c-3.4-.7-6.8-1.3-10.2-2,11.3-.4,22.5-.8,33.8-1,3,0,6,.5,9,1.1.7.1,1.3,1.1,2,1.7-.7.4-1.4,1.1-2.1,1.1-4,0-8.1-.3-12.1-.3-5.5,0-11,.3-16.5.5-1.3-.3-2.6-.7-3.8-1h0Z"/>
        <path style="opacity: 0.9137254901960784" d="M25,4.4c4.1.4,8.2.7,12.3,1.3,1.6.2,3.2,1.3,4.7,2-6.6-.7-13.1-1.7-19.7-1.8-4.2-.1-8.4,1.1-12.7,1.7,2.6-1,5.2-2.4,7.9-2.9,2.4-.5,4.9-.1,7.4-.2Z"/>
        <path style="opacity: 0.6705882352941176" d="M147.7,2.4c0,.4,0,.7,0,1.1-.2,0-.5.2-.7.2.2-.4.5-.9.7-1.3Z"/>
    </g>

</svg>
